<?xml version="1.0" encoding="UTF-8"?><svg xmlns="http://www.w3.org/2000/svg" viewBox="0 0 566.53 374.47"><defs><style>.d{fill:orange;}.e{fill:#5fbec2;}.f{fill:none;stroke:#0a3a48;stroke-miterlimit:10;stroke-width:21px;}</style></defs><g id="a"/><g id="b"><g id="c"><path class="d" d="M542.67,339.37l-67.08-6.86c-1.26-.13-2.17-1.25-2.04-2.51l3.35-32.76c.13-1.26,1.25-2.17,2.51-2.04l45.52,12.8c1.26,.13,19.86,14.93,19.73,16.18l.52,13.13c-.13,1.26-1.25,2.17-2.51,2.04Z"/><circle class="d" cx="488.3" cy="340.59" r="6.75"/><circle class="d" cx="528.59" cy="344.71" r="6.75"/><circle class="f" cx="272.86" cy="176" r="165.5"/><line class="f" x1="274.9" y1="341.63" x2=".85" y2="364"/><line class="f" x1="272.75" y1="342.05" x2="565.75" y2="364"/><g><path class="d" d="M208.77,155c-.96,1.18-2.06,1.99-3.32,2.43-1.25,.44-2.54,.44-3.87,0-1.33-.44-2.43-1.44-3.31-2.98-.37-.59-.66-1.21-.88-1.88-.22-.66-.33-1.33-.33-1.99v-26.08c-.96-.59-1.68-1.36-2.15-2.32-.48-.96-.72-1.97-.72-3.04s.26-2.08,.77-3.04c.51-.96,1.22-1.77,2.1-2.43-.07-1.4-.09-2.58-.06-3.54,.04-.96,.06-1.88,.06-2.76v-2.71c0-.92-.07-2.01-.22-3.26-.07-1.03-.31-2.04-.72-3.04-.41-.99-.76-1.99-1.05-2.98-.29-.99-.41-2.01-.33-3.04,.07-1.03,.51-2.02,1.33-2.98,1.1-1.33,2.45-2.12,4.03-2.38,1.58-.26,3.18-.46,4.81-.61,3.39-.22,6.76-.33,10.11-.33s6.72-.07,10.11-.22c.96,0,1.99-.09,3.09-.28,1.11-.18,2.21-.33,3.32-.44,1.1-.11,2.21-.11,3.31,0,1.11,.11,2.1,.42,2.98,.94,1.11,.66,1.92,1.51,2.43,2.54,.51,1.03,.75,2.1,.72,3.2-.04,1.1-.35,2.17-.94,3.2-.59,1.03-1.44,1.84-2.54,2.43-1.92,1.03-4.02,1.57-6.3,1.6-2.28,.04-4.46,.09-6.52,.17-2.43,.07-4.86,.09-7.29,.06-2.43-.04-4.86,.02-7.29,.17,.15,1.4,.26,3.06,.33,4.97,.07,1.92,.11,4.71,.11,8.4,2.36,0,4.75-.04,7.18-.11,2.43-.07,4.82-.29,7.18-.66,1.25-.15,2.58-.42,3.98-.83,1.4-.4,2.72-.53,3.98-.39,1.47,.15,2.76,.7,3.87,1.66,1.1,.96,1.86,2.04,2.26,3.26,.4,1.22,.39,2.47-.05,3.76-.44,1.29-1.44,2.38-2.98,3.26-1.84,1.03-3.81,1.79-5.91,2.26-2.1,.48-4.25,.81-6.46,1-2.21,.18-4.42,.26-6.63,.22-2.21-.04-4.35-.06-6.41-.06v24.64c-.22,1.62-.81,3.02-1.77,4.2Z"/><path class="e" d="M296.73,144.72c.66,.96,1.05,2.08,1.16,3.37,.11,1.29-.04,2.51-.44,3.65-.41,1.14-1.07,2.08-1.99,2.82-.92,.74-2.12,1.07-3.59,.99-1.92-.15-3.46-.81-4.64-1.99-1.18-1.18-2.28-2.5-3.31-3.98-2.87,2.36-5.84,4-8.9,4.92-3.06,.92-6.06,1.12-9,.61-2.95-.52-5.71-1.75-8.29-3.7-2.58-1.95-4.75-4.59-6.52-7.9-1.62-3.09-2.52-6.52-2.71-10.28-.18-3.76-.24-7.33-.17-10.72,0-1.18,.04-2.34,.11-3.48,.07-1.14,.15-2.34,.22-3.59,.07-.96,.11-1.9,.11-2.82s.06-1.79,.17-2.6c.11-.81,.33-1.62,.66-2.43,.33-.81,.83-1.58,1.49-2.32,.88-.96,1.95-1.53,3.21-1.71,1.25-.18,2.45-.06,3.59,.39,1.14,.44,2.14,1.12,2.98,2.04,.85,.92,1.31,2.04,1.38,3.37,.15,3.76,.06,7.55-.28,11.38-.33,3.83-.31,7.59,.05,11.27,.15,1.77,.61,3.57,1.38,5.42,.77,1.84,2.01,3.17,3.7,3.98,1.69,.74,3.41,.68,5.14-.17,1.73-.85,3.15-1.86,4.25-3.04,.51-.59,1.01-1.23,1.49-1.93,.48-.7,1.01-1.31,1.6-1.82-.29-2.58-.48-5.16-.55-7.73-.07-2.58-.07-5.16,0-7.73,0-1.4,.06-2.93,.17-4.59,.11-1.66,.4-3.24,.88-4.75,.48-1.51,1.2-2.83,2.15-3.98,.96-1.14,2.32-1.86,4.09-2.15,.81-.15,1.6-.07,2.38,.22,.77,.3,1.45,.7,2.04,1.22,1.03,.88,1.73,1.88,2.1,2.98,.37,1.1,.55,2.28,.55,3.54s-.09,2.52-.28,3.81c-.19,1.29-.31,2.49-.39,3.59-.15,2.06-.26,4.24-.33,6.52-.07,2.28,0,4.57,.22,6.85,.22,2.28,.64,4.49,1.27,6.63,.62,2.14,1.56,4.09,2.82,5.86Z"/><path class="e" d="M349.65,150.47c-.22,1.84-.9,3.35-2.04,4.53-1.14,1.18-2.43,1.92-3.87,2.21-1.44,.29-2.82,.11-4.14-.55-1.33-.66-2.28-1.95-2.87-3.87-.66-2.06-.92-4.22-.77-6.46,.15-2.25,.22-4.33,.22-6.24,0-3.98,.02-7.94,.06-11.88,.04-3.94-.13-7.9-.5-11.88-.07-.15-.15-.28-.22-.39-.07-.11-.22-.28-.44-.5-1.7-.44-3.5-.33-5.42,.33-1.92,.66-3.54,1.51-4.86,2.54-1.18,.96-2.34,2.27-3.48,3.92-1.14,1.66-1.71,3.26-1.71,4.81v15.25c0,1.18,.04,2.47,.11,3.87,.07,1.4,.02,2.76-.17,4.09-.18,1.33-.61,2.54-1.27,3.65-.66,1.1-1.73,1.91-3.2,2.43-.81,.29-1.57,.4-2.27,.33-.7-.07-1.46-.26-2.27-.55-1.33-.44-2.28-1.2-2.87-2.27-.59-1.07-1-2.21-1.22-3.42-.22-1.22-.31-2.39-.28-3.54,.04-1.14,.06-2.04,.06-2.71,0-1.69-.02-4.14-.06-7.35-.04-3.2-.06-6.57-.06-10.11v-17.46c0-1.62,.48-2.96,1.44-4.03,.96-1.07,2.08-1.77,3.37-2.1,1.29-.33,2.65-.26,4.09,.22,1.44,.48,2.63,1.46,3.59,2.93,2.95-1.91,6.19-3.2,9.72-3.87,3.54-.66,6.87-.55,10,.33,3.13,.88,5.75,2.54,7.85,4.97,2.1,2.43,3.19,5.78,3.26,10.06,0,.15,.04,.59,.11,1.33,.07,.74,.11,1.77,.11,3.09v28.29Z"/><path class="d" d="M207.5,242.62c1.69,.81,2.98,1.84,3.87,3.09,.88,1.25,1.31,2.52,1.27,3.81-.04,1.29-.52,2.51-1.44,3.65-.92,1.14-2.34,2.01-4.25,2.6-.74,.22-1.77,.35-3.09,.39-1.33,.04-3.17,.06-5.52,.06h-8.95c-3.61,0-8.07,.04-13.37,.11-1.33,.07-2.69,.11-4.09,.11s-2.62-.48-3.65-1.44c-.88-.74-1.53-1.86-1.93-3.37-.41-1.51-.66-3.09-.77-4.75s-.15-3.32-.11-4.97c.04-1.66,.06-3.04,.06-4.14,0-2.21,.02-4.75,.05-7.62,.04-2.87,.07-5.8,.11-8.79s.06-5.91,.06-8.78v-7.62c0-3.9,.04-7.05,.11-9.45,.07-2.39,.24-4.27,.5-5.63,.26-1.36,.68-2.36,1.27-2.98,.59-.62,1.4-1.16,2.43-1.6,.88-.37,1.86-.5,2.93-.39,1.07,.11,2.06,.41,2.98,.88,.92,.48,1.69,1.14,2.32,1.99,.62,.85,.94,1.79,.94,2.82,.15,8.84,.15,17.61,0,26.3-.15,8.69-.22,17.39-.22,26.08,4.64,0,9.26-.06,13.87-.17,4.6-.11,9.26-.24,13.98-.39l.66,.22Z"/><path class="e" d="M264.63,248.48c.59,2.14,.48,3.91-.33,5.3-.81,1.4-1.93,2.34-3.37,2.82-1.44,.48-3,.42-4.7-.17-1.7-.59-3.17-1.77-4.42-3.54-2.06,1.55-4.07,2.63-6.02,3.26-1.95,.62-4.18,.98-6.69,1.05-3.76,.15-7.11-.28-10.05-1.27-2.95-.99-5.43-2.49-7.46-4.48-2.03-1.99-3.52-4.47-4.48-7.46-.96-2.98-1.29-6.43-.99-10.33,.15-1.62,.42-3.2,.83-4.75,.4-1.55,.86-3.06,1.38-4.53,.59-1.62,1.42-3.35,2.49-5.19,1.07-1.84,2.15-3.43,3.26-4.75,3.98-4.86,8.95-8.36,14.92-10.5,1.03-.37,2.43-.7,4.2-.99,1.77-.29,3.55-.42,5.36-.39,1.8,.04,3.54,.28,5.19,.72,1.66,.44,2.89,1.22,3.7,2.32,.66,.88,1.14,1.66,1.44,2.32,.29,.66,.46,1.36,.5,2.1,.04,.74,.04,1.53,0,2.38-.04,.85-.06,1.9-.06,3.15,0,2.06-.02,4.07-.05,6.02-.04,1.95-.02,3.92,.05,5.91v2.6c0,1.07,.04,2.19,.11,3.37,.07,1.18,.17,2.3,.28,3.37,.11,1.07,.28,1.93,.5,2.6l4.42,9.06Zm-23.43-4.97c.81-.51,1.73-1.09,2.76-1.71,1.03-.62,1.95-1.34,2.76-2.15-.66-3.9-1.05-7.81-1.16-11.71-.11-3.9-.09-7.85,.06-11.82-3.32,.59-6.3,2.03-8.95,4.31-2.65,2.28-4.49,4.97-5.53,8.07-.44,1.25-.81,2.54-1.1,3.87-.29,1.33-.41,2.62-.33,3.87,.07,1.7,.51,3.11,1.33,4.25,.81,1.14,1.79,2.01,2.93,2.6,1.14,.59,2.36,.92,3.65,.99,1.29,.07,2.49-.11,3.59-.55Z"/><path class="e" d="M316.45,250.47c-.22,1.84-.9,3.35-2.04,4.53-1.14,1.18-2.43,1.92-3.87,2.21-1.44,.29-2.82,.11-4.14-.55-1.33-.66-2.28-1.95-2.87-3.87-.66-2.06-.92-4.22-.77-6.46,.15-2.25,.22-4.33,.22-6.24,0-3.98,.02-7.94,.06-11.88,.04-3.94-.13-7.9-.5-11.88-.07-.15-.15-.28-.22-.39-.07-.11-.22-.28-.44-.5-1.7-.44-3.5-.33-5.42,.33-1.92,.66-3.54,1.51-4.86,2.54-1.18,.96-2.34,2.26-3.48,3.92-1.14,1.66-1.71,3.26-1.71,4.81v15.25c0,1.18,.04,2.47,.11,3.87,.07,1.4,.02,2.76-.17,4.09-.18,1.33-.61,2.54-1.27,3.65-.66,1.1-1.73,1.91-3.2,2.43-.81,.29-1.57,.4-2.27,.33-.7-.07-1.46-.26-2.27-.55-1.33-.44-2.28-1.2-2.87-2.27-.59-1.07-1-2.21-1.22-3.42-.22-1.22-.31-2.39-.28-3.54,.04-1.14,.06-2.04,.06-2.71,0-1.69-.02-4.14-.06-7.35-.04-3.2-.06-6.57-.06-10.11v-17.46c0-1.62,.48-2.96,1.44-4.03,.96-1.07,2.08-1.77,3.37-2.1,1.29-.33,2.65-.26,4.09,.22,1.44,.48,2.63,1.46,3.59,2.93,2.95-1.91,6.19-3.2,9.72-3.87,3.54-.66,6.87-.55,10,.33,3.13,.88,5.75,2.54,7.85,4.97,2.1,2.43,3.19,5.78,3.26,10.06,0,.15,.04,.59,.11,1.33,.07,.74,.11,1.77,.11,3.09v28.29Z"/><path class="e" d="M378.22,244.5c1.25,2.14,1.67,4.05,1.27,5.75-.41,1.7-1.23,2.97-2.49,3.81-1.25,.85-2.78,1.18-4.59,1-1.81-.18-3.55-1.12-5.25-2.82-1.77,1.25-3.61,2.23-5.53,2.93-1.92,.7-3.94,1.31-6.08,1.82-3.31,.74-6.5,.68-9.56-.17-3.06-.85-5.77-2.23-8.12-4.14-2.36-1.92-4.27-4.29-5.75-7.13-1.47-2.83-2.28-5.91-2.43-9.23-.22-3.68,.06-7.22,.83-10.61,.77-3.39,2.01-6.48,3.7-9.28,1.69-2.8,3.92-5.19,6.69-7.18,2.76-1.99,6.02-3.39,9.78-4.2,2.21-.44,4.44-.66,6.69-.66s4.48,.18,6.69,.55c-.08-1.62-.13-3.48-.17-5.58-.04-2.1-.06-4.14-.06-6.13s.07-3.77,.22-5.36c.15-1.58,.33-2.71,.55-3.37,.51-1.33,1.31-2.34,2.38-3.04,1.07-.7,2.19-1.07,3.37-1.1,1.18-.04,2.34,.26,3.48,.88,1.14,.63,2.04,1.57,2.71,2.82,.15,.37,.33,.72,.55,1.05,.22,.33,.33,.68,.33,1.05,.07,9.65,.09,19.19,.05,28.62-.04,9.43-.05,18.97-.05,28.62,.29,.44,.55,.81,.77,1.1Zm-15.36-6.08c.15-.22,.42-.44,.83-.66,.4-.22,.61-.51,.61-.88v-9.12c0-2.98-.04-6.02-.11-9.12-1.77-.37-3.61-.59-5.53-.66-1.92-.07-3.78,.11-5.58,.55-1.81,.44-3.46,1.18-4.97,2.21-1.51,1.03-2.71,2.5-3.59,4.42-.44,1.4-.85,2.8-1.22,4.2-.37,1.4-.57,2.76-.61,4.09-.04,1.33,.13,2.63,.5,3.92,.37,1.29,1,2.52,1.88,3.7,.29,.3,.64,.59,1.05,.88,.4,.29,1.2,.81,2.38,1.55,2.72,.22,5.32-.04,7.79-.77,2.47-.74,4.66-2.17,6.58-4.31Z"/></g></g></g></svg>